{
    "asset" : {
        "generator" : "Khronos glTF Blender I/O v1.8.19",
        "version" : "2.0"
    },
    "scene" : 0,
    "scenes" : [
        {
            "name" : "Scene",
            "nodes" : [
                1
            ]
        }
    ],
    "nodes" : [
        {
            "mesh" : 0,
            "name" : "SM_MERGED_StaticMeshActor_125.011",
            "rotation" : [
                0.016327472403645515,
                0.9067507982254028,
                0.232389897108078,
                0.35147029161453247
            ],
            "translation" : [
                -8.206634521484375,
                63.22861099243164,
                15.496589660644531
            ]
        },
        {
            "children" : [
                0
            ],
            "name" : "SM_MERGED_StaticMeshActor_125.010",
            "rotation" : [
                0,
                -0.5915058851242065,
                0,
                0.8063008189201355
            ],
            "scale" : [
                0.009999999776482582,
                0.009999999776482582,
                0.009999999776482582
            ],
            "translation" : [
                0.7624262571334839,
                -1.2317225933074951,
                3.550337314605713
            ]
        }
    ],
    "meshes" : [
        {
            "name" : "meshId0_name.005",
            "primitives" : [
                {
                    "attributes" : {
                        "POSITION" : 0,
                        "NORMAL" : 1,
                        "TEXCOORD_0" : 2,
                        "TEXCOORD_1" : 3,
                        "TEXCOORD_2" : 4
                    },
                    "indices" : 5
                }
            ]
        }
    ],
    "accessors" : [
        {
            "bufferView" : 0,
            "componentType" : 5126,
            "count" : 509,
            "max" : [
                70.59761047363281,
                3.925034523010254,
                56.37363815307617
            ],
            "min" : [
                -56.48833084106445,
                -16.367416381835938,
                -26.103023529052734
            ],
            "type" : "VEC3"
        },
        {
            "bufferView" : 1,
            "componentType" : 5126,
            "count" : 509,
            "type" : "VEC3"
        },
        {
            "bufferView" : 2,
            "componentType" : 5126,
            "count" : 509,
            "type" : "VEC2"
        },
        {
            "bufferView" : 3,
            "componentType" : 5126,
            "count" : 509,
            "type" : "VEC2"
        },
        {
            "bufferView" : 4,
            "componentType" : 5126,
            "count" : 509,
            "type" : "VEC2"
        },
        {
            "bufferView" : 5,
            "componentType" : 5123,
            "count" : 972,
            "type" : "SCALAR"
        }
    ],
    "bufferViews" : [
        {
            "buffer" : 0,
            "byteLength" : 6108,
            "byteOffset" : 0
        },
        {
            "buffer" : 0,
            "byteLength" : 6108,
            "byteOffset" : 6108
        },
        {
            "buffer" : 0,
            "byteLength" : 4072,
            "byteOffset" : 12216
        },
        {
            "buffer" : 0,
            "byteLength" : 4072,
            "byteOffset" : 16288
        },
        {
            "buffer" : 0,
            "byteLength" : 4072,
            "byteOffset" : 20360
        },
        {
            "buffer" : 0,
            "byteLength" : 1944,
            "byteOffset" : 24432
        }
    ],
    "buffers" : [
        {
            "byteLength" : 26376,
            "uri" : "data:application/octet-stream;base64,"
        }
    ]
}
